# Tiled2Unity generated file. Do not modify by hand.
# Wavefront file for 'worldmap_mesh_0004.obj'

# Vertices (Count = 772)
v -24.32 -74.24 0
v -26.88 -74.24 0
v -26.88 -72.96 0
v -24.32 -72.96 0
v -23.04 -73.6 0
v -25.6 -73.6 0
v -25.6 -72.32 0
v -23.04 -72.32 0
v -108.8 -115.2 0
v -111.36 -115.2 0
v -111.36 -113.92 0
v -108.8 -113.92 0
v -44.8 -83.2 0
v -47.36 -83.2 0
v -47.36 -81.92 0
v -44.8 -81.92 0
v -43.52 -82.56 0
v -46.08 -82.56 0
v -46.08 -81.28 0
v -43.52 -81.28 0
v -25.6 -73.6 0
v -28.16 -73.6 0
v -28.16 -72.32 0
v -25.6 -72.32 0
v -5.12 -63.36 0
v -7.68 -63.36 0
v -7.68 -62.08 0
v -5.12 -62.08 0
v -61.44 -90.24 0
v -64 -90.24 0
v -64 -88.96 0
v -61.44 -88.96 0
v -46.08 -82.56 0
v -48.64 -82.56 0
v -48.64 -81.28 0
v -46.08 -81.28 0
v -39.68 -78.08 0
v -42.24 -78.08 0
v -42.24 -76.8 0
v -39.68 -76.8 0
v -126.72 -120.32 0
v -129.28 -120.32 0
v -129.28 -119.04 0
v -126.72 -119.04 0
v -125.44 -119.68 0
v -128 -119.68 0
v -128 -118.4 0
v -125.44 -118.4 0
v -106.24 -110.08 0
v -108.8 -110.08 0
v -108.8 -108.8 0
v -106.24 -108.8 0
v -92.16 -103.04 0
v -94.72 -103.04 0
v -94.72 -101.76 0
v -92.16 -101.76 0
v -128 -119.68 0
v -130.56 -119.68 0
v -130.56 -118.4 0
v -128 -118.4 0
v -99.84 -105.6 0
v -102.4 -105.6 0
v -102.4 -104.32 0
v -99.84 -104.32 0
v -30.72 -71.04 0
v -33.28 -71.04 0
v -33.28 -69.76 0
v -30.72 -69.76 0
v -16.64 -64 0
v -19.2 -64 0
v -19.2 -62.72 0
v -16.64 -62.72 0
v -15.36 -63.36 0
v -17.92 -63.36 0
v -17.92 -62.08 0
v -15.36 -62.08 0
v -60.16 -84.48 0
v -62.72 -84.48 0
v -62.72 -83.2 0
v -60.16 -83.2 0
v -37.12 -72.96 0
v -39.68 -72.96 0
v -39.68 -71.68 0
v -37.12 -71.68 0
v -17.92 -63.36 0
v -20.48 -63.36 0
v -20.48 -62.08 0
v -17.92 -62.08 0
v -116.48 -111.36 0
v -119.04 -111.36 0
v -119.04 -110.08 0
v -116.48 -110.08 0
v -69.12 -87.68 0
v -71.68 -87.68 0
v -71.68 -86.4 0
v -69.12 -86.4 0
v -52.48 -79.36 0
v -55.04 -79.36 0
v -55.04 -78.08 0
v -52.48 -78.08 0
v -107.52 -105.6 0
v -110.08 -105.6 0
v -110.08 -104.32 0
v -107.52 -104.32 0
v -106.24 -104.96 0
v -108.8 -104.96 0
v -108.8 -103.68 0
v -106.24 -103.68 0
v -136.96 -119.04 0
v -139.52 -119.04 0
v -139.52 -117.76 0
v -136.96 -117.76 0
v -108.8 -104.96 0
v -111.36 -104.96 0
v -111.36 -103.68 0
v -108.8 -103.68 0
v -78.08 -89.6 0
v -80.64 -89.6 0
v -80.64 -88.32 0
v -78.08 -88.32 0
v -28.16 -64.64 0
v -30.72 -64.64 0
v -30.72 -63.36 0
v -28.16 -63.36 0
v -98.56 -98.56 0
v -101.12 -98.56 0
v -101.12 -97.28 0
v -98.56 -97.28 0
v -142.08 -119.04 0
v -144.64 -119.04 0
v -144.64 -117.76 0
v -142.08 -117.76 0
v -140.8 -118.4 0
v -143.36 -118.4 0
v -143.36 -117.12 0
v -140.8 -117.12 0
v -143.36 -118.4 0
v -145.92 -118.4 0
v -145.92 -117.12 0
v -143.36 -117.12 0
v -130.56 -112 0
v -133.12 -112 0
v -133.12 -110.72 0
v -130.56 -110.72 0
v -85.75999 -89.6 0
v -88.32 -89.6 0
v -88.32 -88.32 0
v -85.75999 -88.32 0
v -84.48 -88.96 0
v -87.04 -88.96 0
v -87.04 -87.68 0
v -84.48 -87.68 0
v -44.8 -69.12 0
v -47.36 -69.12 0
v -47.36 -67.84 0
v -44.8 -67.84 0
v -87.04 -88.96 0
v -89.6 -88.96 0
v -89.6 -87.68 0
v -87.04 -87.68 0
v -83.2 -85.75999 0
v -85.75999 -85.75999 0
v -85.75999 -84.48 0
v -83.2 -84.48 0
v -40.96 -64.64 0
v -43.52 -64.64 0
v -43.52 -63.36 0
v -40.96 -63.36 0
v -30.72 -58.24 0
v -33.28 -58.24 0
v -33.28 -56.96 0
v -30.72 -56.96 0
v -25.6 -55.68 0
v -28.16 -55.68 0
v -28.16 -54.4 0
v -25.6 -54.4 0
v -24.32 -55.04 0
v -26.88 -55.04 0
v -26.88 -53.76 0
v -24.32 -53.76 0
v -26.88 -55.04 0
v -29.44 -55.04 0
v -29.44 -53.76 0
v -26.88 -53.76 0
v -25.6 -54.4 0
v -28.16 -54.4 0
v -28.16 -53.12 0
v -25.6 -53.12 0
v -75.52 -78.08 0
v -78.08 -78.08 0
v -78.08 -76.8 0
v -75.52 -76.8 0
v -74.24 -77.43999 0
v -76.8 -77.43999 0
v -76.8 -76.16 0
v -74.24 -76.16 0
v -76.8 -77.43999 0
v -79.36 -77.43999 0
v -79.36 -76.16 0
v -76.8 -76.16 0
v -115.2 -92.8 0
v -117.76 -92.8 0
v -117.76 -91.52 0
v -115.2 -91.52 0
v -37.12 -53.76 0
v -39.68 -53.76 0
v -39.68 -52.48 0
v -37.12 -52.48 0
v -139.52 -103.68 0
v -142.08 -103.68 0
v -142.08 -102.4 0
v -139.52 -102.4 0
v -138.24 -103.04 0
v -140.8 -103.04 0
v -140.8 -101.76 0
v -138.24 -101.76 0
v -67.84 -67.84 0
v -70.4 -67.84 0
v -70.4 -66.56 0
v -67.84 -66.56 0
v -58.88 -63.36 0
v -61.44 -63.36 0
v -61.44 -62.08 0
v -58.88 -62.08 0
v -57.6 -62.72 0
v -60.16 -62.72 0
v -60.16 -61.44 0
v -57.6 -61.44 0
v -140.8 -103.04 0
v -143.36 -103.04 0
v -143.36 -101.76 0
v -140.8 -101.76 0
v -104.96 -85.12 0
v -107.52 -85.12 0
v -107.52 -83.84 0
v -104.96 -83.84 0
v -60.16 -62.72 0
v -62.72 -62.72 0
v -62.72 -61.44 0
v -60.16 -61.44 0
v -88.32 -75.52 0
v -90.88 -75.52 0
v -90.88 -74.24 0
v -88.32 -74.24 0
v -156.16 -108.16 0
v -158.72 -108.16 0
v -158.72 -106.88 0
v -156.16 -106.88 0
v -108.8 -84.48 0
v -111.36 -84.48 0
v -111.36 -83.2 0
v -108.8 -83.2 0
v -62.72 -61.44 0
v -65.28 -61.44 0
v -65.28 -60.16 0
v -62.72 -60.16 0
v -154.88 -106.24 0
v -157.44 -106.24 0
v -157.44 -104.96 0
v -154.88 -104.96 0
v -75.52 -65.28 0
v -78.08 -65.28 0
v -78.08 -64 0
v -75.52 -64 0
v -49.92 -51.2 0
v -52.48 -51.2 0
v -52.48 -49.92 0
v -49.92 -49.92 0
v -43.52 -46.72 0
v -46.08 -46.72 0
v -46.08 -45.44 0
v -43.52 -45.44 0
v -42.24 -46.08 0
v -44.8 -46.08 0
v -44.8 -44.8 0
v -42.24 -44.8 0
v -44.8 -46.08 0
v -47.36 -46.08 0
v -47.36 -44.8 0
v -44.8 -44.8 0
v -162.56 -99.84 0
v -165.12 -99.84 0
v -165.12 -98.56 0
v -162.56 -98.56 0
v -161.28 -99.2 0
v -163.84 -99.2 0
v -163.84 -97.92 0
v -161.28 -97.92 0
v -158.72 -97.92 0
v -161.28 -97.92 0
v -161.28 -96.64 0
v -158.72 -96.64 0
v -143.36 -90.24 0
v -145.92 -90.24 0
v -145.92 -88.96 0
v -143.36 -88.96 0
v -133.12 -85.12 0
v -135.68 -85.12 0
v -135.68 -83.84 0
v -133.12 -83.84 0
v -163.84 -99.2 0
v -166.4 -99.2 0
v -166.4 -97.92 0
v -163.84 -97.92 0
v -57.6 -46.08 0
v -60.16 -46.08 0
v -60.16 -44.8 0
v -57.6 -44.8 0
v -171.52 -101.76 0
v -174.08 -101.76 0
v -174.08 -100.48 0
v -171.52 -100.48 0
v -139.52 -84.48 0
v -142.08 -84.48 0
v -142.08 -83.2 0
v -139.52 -83.2 0
v -55.04 -42.24 0
v -57.6 -42.24 0
v -57.6 -40.96 0
v -55.04 -40.96 0
v -80.64 -52.48 0
v -83.2 -52.48 0
v -83.2 -51.2 0
v -80.64 -51.2 0
v -79.36 -51.84 0
v -81.92 -51.84 0
v -81.92 -50.56 0
v -79.36 -50.56 0
v -102.4 -62.08 0
v -104.96 -62.08 0
v -104.96 -60.8 0
v -102.4 -60.8 0
v -81.92 -51.84 0
v -84.48 -51.84 0
v -84.48 -50.56 0
v -81.92 -50.56 0
v -58.88 -37.76 0
v -61.44 -37.76 0
v -61.44 -36.48 0
v -58.88 -36.48 0
v -57.6 -37.12 0
v -60.16 -37.12 0
v -60.16 -35.84 0
v -57.6 -35.84 0
v -153.6 -83.84 0
v -156.16 -83.84 0
v -156.16 -82.56 0
v -153.6 -82.56 0
v -60.16 -37.12 0
v -62.72 -37.12 0
v -62.72 -35.84 0
v -60.16 -35.84 0
v -84.48 -46.72 0
v -87.04 -46.72 0
v -87.04 -45.44 0
v -84.48 -45.44 0
v -70.4 -39.68 0
v -72.96 -39.68 0
v -72.96 -38.4 0
v -70.4 -38.4 0
v -134.4 -70.4 0
v -136.96 -70.4 0
v -136.96 -69.12 0
v -134.4 -69.12 0
v -160 -81.92 0
v -162.56 -81.92 0
v -162.56 -80.64 0
v -160 -80.64 0
v -76.8 -40.32 0
v -79.36 -40.32 0
v -79.36 -39.04 0
v -76.8 -39.04 0
v -90.88 -46.08 0
v -93.43999 -46.08 0
v -93.43999 -44.8 0
v -90.88 -44.8 0
v -151.04 -73.6 0
v -153.6 -73.6 0
v -153.6 -72.32 0
v -151.04 -72.32 0
v -171.52 -81.28 0
v -174.08 -81.28 0
v -174.08 -80 0
v -171.52 -80 0
v -185.6 -87.04 0
v -188.16 -87.04 0
v -188.16 -85.75999 0
v -185.6 -85.75999 0
v -184.32 -86.4 0
v -186.88 -86.4 0
v -186.88 -85.12 0
v -184.32 -85.12 0
v -179.2 -83.84 0
v -181.76 -83.84 0
v -181.76 -82.56 0
v -179.2 -82.56 0
v -140.8 -64.64 0
v -143.36 -64.64 0
v -143.36 -63.36 0
v -140.8 -63.36 0
v -186.88 -86.4 0
v -189.44 -86.4 0
v -189.44 -85.12 0
v -186.88 -85.12 0
v -134.4 -60.16 0
v -136.96 -60.16 0
v -136.96 -58.88 0
v -134.4 -58.88 0
v -101.12 -42.24 0
v -103.68 -42.24 0
v -103.68 -40.96 0
v -101.12 -40.96 0
v -99.84 -41.6 0
v -102.4 -41.6 0
v -102.4 -40.32 0
v -99.84 -40.32 0
v -195.84 -88.32 0
v -198.4 -88.32 0
v -198.4 -87.04 0
v -195.84 -87.04 0
v -102.4 -41.6 0
v -104.96 -41.6 0
v -104.96 -40.32 0
v -102.4 -40.32 0
v -157.44 -67.84 0
v -160 -67.84 0
v -160 -66.56 0
v -157.44 -66.56 0
v -147.2 -61.44 0
v -149.76 -61.44 0
v -149.76 -60.16 0
v -147.2 -60.16 0
v -134.4 -52.48 0
v -136.96 -52.48 0
v -136.96 -51.2 0
v -134.4 -51.2 0
v -85.75999 -28.16 0
v -88.32 -28.16 0
v -88.32 -26.88 0
v -85.75999 -26.88 0
v -84.48 -27.52 0
v -87.04 -27.52 0
v -87.04 -26.24 0
v -84.48 -26.24 0
v -140.8 -54.4 0
v -143.36 -54.4 0
v -143.36 -53.12 0
v -140.8 -53.12 0
v -103.68 -35.84 0
v -106.24 -35.84 0
v -106.24 -34.56 0
v -103.68 -34.56 0
v -87.04 -27.52 0
v -89.6 -27.52 0
v -89.6 -26.24 0
v -87.04 -26.24 0
v -202.24 -83.84 0
v -204.8 -83.84 0
v -204.8 -82.56 0
v -202.24 -82.56 0
v -112.64 -39.04 0
v -115.2 -39.04 0
v -115.2 -37.76 0
v -112.64 -37.76 0
v -209.92 -85.12 0
v -212.48 -85.12 0
v -212.48 -83.84 0
v -209.92 -83.84 0
v -145.92 -51.84 0
v -148.48 -51.84 0
v -148.48 -50.56 0
v -145.92 -50.56 0
v -121.6 -38.4 0
v -124.16 -38.4 0
v -124.16 -37.12 0
v -121.6 -37.12 0
v -184.32 -67.2 0
v -186.88 -67.2 0
v -186.88 -65.92 0
v -184.32 -65.92 0
v -171.52 -60.8 0
v -174.08 -60.8 0
v -174.08 -59.52 0
v -171.52 -59.52 0
v -115.2 -32.64 0
v -117.76 -32.64 0
v -117.76 -31.36 0
v -115.2 -31.36 0
v -113.92 -32 0
v -116.48 -32 0
v -116.48 -30.72 0
v -113.92 -30.72 0
v -116.48 -32 0
v -119.04 -32 0
v -119.04 -30.72 0
v -116.48 -30.72 0
v -208.64 -76.8 0
v -211.2 -76.8 0
v -211.2 -75.52 0
v -208.64 -75.52 0
v -145.92 -44.16 0
v -148.48 -44.16 0
v -148.48 -42.88 0
v -145.92 -42.88 0
v -99.84 -21.12 0
v -102.4 -21.12 0
v -102.4 -19.84 0
v -99.84 -19.84 0
v -160 -48.64 0
v -162.56 -48.64 0
v -162.56 -47.36 0
v -160 -47.36 0
v -165.12 -49.92 0
v -167.68 -49.92 0
v -167.68 -48.64 0
v -165.12 -48.64 0
v -163.84 -49.28 0
v -166.4 -49.28 0
v -166.4 -48 0
v -163.84 -48 0
v -204.8 -68.48 0
v -207.36 -68.48 0
v -207.36 -67.2 0
v -204.8 -67.2 0
v -166.4 -49.28 0
v -168.96 -49.28 0
v -168.96 -48 0
v -166.4 -48 0
v -111.36 -17.92 0
v -113.92 -17.92 0
v -113.92 -16.64 0
v -111.36 -16.64 0
v -217.6 -69.76 0
v -220.16 -69.76 0
v -220.16 -68.48 0
v -217.6 -68.48 0
v -216.32 -69.12 0
v -218.88 -69.12 0
v -218.88 -67.84 0
v -216.32 -67.84 0
v -130.56 -26.24 0
v -133.12 -26.24 0
v -133.12 -24.96 0
v -130.56 -24.96 0
v -125.44 -23.68 0
v -128 -23.68 0
v -128 -22.4 0
v -125.44 -22.4 0
v -218.88 -69.12 0
v -221.44 -69.12 0
v -221.44 -67.84 0
v -218.88 -67.84 0
v -120.32 -19.84 0
v -122.88 -19.84 0
v -122.88 -18.56 0
v -120.32 -18.56 0
v -148.48 -32.64 0
v -151.04 -32.64 0
v -151.04 -31.36 0
v -148.48 -31.36 0
v -147.2 -32 0
v -149.76 -32 0
v -149.76 -30.72 0
v -147.2 -30.72 0
v -107.52 -12.16 0
v -110.08 -12.16 0
v -110.08 -10.88 0
v -107.52 -10.88 0
v -149.76 -32 0
v -152.32 -32 0
v -152.32 -30.72 0
v -149.76 -30.72 0
v -134.4 -24.32 0
v -136.96 -24.32 0
v -136.96 -23.04 0
v -134.4 -23.04 0
v -227.84 -69.76 0
v -230.4 -69.76 0
v -230.4 -68.48 0
v -227.84 -68.48 0
v -207.36 -58.24 0
v -209.92 -58.24 0
v -209.92 -56.96 0
v -207.36 -56.96 0
v -130.56 -19.84 0
v -133.12 -19.84 0
v -133.12 -18.56 0
v -130.56 -18.56 0
v -129.28 -19.2 0
v -131.84 -19.2 0
v -131.84 -17.92 0
v -129.28 -17.92 0
v -122.88 -16 0
v -125.44 -16 0
v -125.44 -14.72 0
v -122.88 -14.72 0
v -116.48 -12.8 0
v -119.04 -12.8 0
v -119.04 -11.52 0
v -116.48 -11.52 0
v -195.84 -51.2 0
v -198.4 -51.2 0
v -198.4 -49.92 0
v -195.84 -49.92 0
v -131.84 -19.2 0
v -134.4 -19.2 0
v -134.4 -17.92 0
v -131.84 -17.92 0
v -147.2 -25.6 0
v -149.76 -25.6 0
v -149.76 -24.32 0
v -147.2 -24.32 0
v -213.76 -57.6 0
v -216.32 -57.6 0
v -216.32 -56.32 0
v -213.76 -56.32 0
v -185.6 -43.52 0
v -188.16 -43.52 0
v -188.16 -42.24 0
v -185.6 -42.24 0
v -183.04 -40.96 0
v -185.6 -40.96 0
v -185.6 -39.68 0
v -183.04 -39.68 0
v -163.84 -31.36 0
v -166.4 -31.36 0
v -166.4 -30.08 0
v -163.84 -30.08 0
v -117.76 -8.32 0
v -120.32 -8.32 0
v -120.32 -7.04 0
v -117.76 -7.04 0
v -231.68 -64 0
v -234.24 -64 0
v -234.24 -62.72 0
v -231.68 -62.72 0
v -138.24 -17.28 0
v -140.8 -17.28 0
v -140.8 -16 0
v -138.24 -16 0
v -171.52 -32.64 0
v -174.08 -32.64 0
v -174.08 -31.36 0
v -171.52 -31.36 0
v -133.12 -13.44 0
v -135.68 -13.44 0
v -135.68 -12.16 0
v -133.12 -12.16 0
v -125.44 -9.599999 0
v -128 -9.599999 0
v -128 -8.32 0
v -125.44 -8.32 0
v -124.16 -8.96 0
v -126.72 -8.96 0
v -126.72 -7.68 0
v -124.16 -7.68 0
v -206.08 -48.64 0
v -208.64 -48.64 0
v -208.64 -47.36 0
v -206.08 -47.36 0
v -204.8 -48 0
v -207.36 -48 0
v -207.36 -46.72 0
v -204.8 -46.72 0
v -126.72 -8.96 0
v -129.28 -8.96 0
v -129.28 -7.68 0
v -126.72 -7.68 0
v -122.88 -7.04 0
v -125.44 -7.04 0
v -125.44 -5.76 0
v -122.88 -5.76 0
v -207.36 -48 0
v -209.92 -48 0
v -209.92 -46.72 0
v -207.36 -46.72 0
v -198.4 -43.52 0
v -200.96 -43.52 0
v -200.96 -42.24 0
v -198.4 -42.24 0
v -172.8 -30.72 0
v -175.36 -30.72 0
v -175.36 -29.44 0
v -172.8 -29.44 0
v -161.28 -23.68 0
v -163.84 -23.68 0
v -163.84 -22.4 0
v -161.28 -22.4 0
v -160 -23.04 0
v -162.56 -23.04 0
v -162.56 -21.76 0
v -160 -21.76 0
v -134.4 -10.24 0
v -136.96 -10.24 0
v -136.96 -8.96 0
v -134.4 -8.96 0
v -247.04 -65.28 0
v -249.6 -65.28 0
v -249.6 -64 0
v -247.04 -64 0
v -227.84 -55.68 0
v -230.4 -55.68 0
v -230.4 -54.4 0
v -227.84 -54.4 0
v -226.56 -55.04 0
v -229.12 -55.04 0
v -229.12 -53.76 0
v -226.56 -53.76 0
v -212.48 -48 0
v -215.04 -48 0
v -215.04 -46.72 0
v -212.48 -46.72 0
v -162.56 -23.04 0
v -165.12 -23.04 0
v -165.12 -21.76 0
v -162.56 -21.76 0
v -151.04 -17.28 0
v -153.6 -17.28 0
v -153.6 -16 0
v -151.04 -16 0
v -139.52 -11.52 0
v -142.08 -11.52 0
v -142.08 -10.24 0
v -139.52 -10.24 0
v -126.72 -5.12 0
v -129.28 -5.12 0
v -129.28 -3.84 0
v -126.72 -3.84 0
v -229.12 -55.04 0
v -231.68 -55.04 0
v -231.68 -53.76 0
v -229.12 -53.76 0
v -194.56 -37.76 0
v -197.12 -37.76 0
v -197.12 -36.48 0
v -194.56 -36.48 0
v -175.36 -28.16 0
v -177.92 -28.16 0
v -177.92 -26.88 0
v -175.36 -26.88 0
v -174.08 -27.52 0
v -176.64 -27.52 0
v -176.64 -26.24 0
v -174.08 -26.24 0
v -148.48 -14.72 0
v -151.04 -14.72 0
v -151.04 -13.44 0
v -148.48 -13.44 0
v -147.2 -14.08 0
v -149.76 -14.08 0
v -149.76 -12.8 0
v -147.2 -12.8 0
v -204.8 -41.6 0
v -207.36 -41.6 0
v -207.36 -40.32 0
v -204.8 -40.32 0
v -203.52 -40.96 0
v -206.08 -40.96 0
v -206.08 -39.68 0
v -203.52 -39.68 0
v -176.64 -27.52 0
v -179.2 -27.52 0
v -179.2 -26.24 0
v -176.64 -26.24 0
v -149.76 -14.08 0
v -152.32 -14.08 0
v -152.32 -12.8 0
v -149.76 -12.8 0
v -206.08 -40.96 0
v -208.64 -40.96 0
v -208.64 -39.68 0
v -206.08 -39.68 0

# Texture cooridinates (Count = 32)
vt 0.1264648 0.2387695
vt 0.2514648 0.2387695
vt 0.2514648 0.3012695
vt 0.1264648 0.3012695
vt 0.2524414 0.2387695
vt 0.3774414 0.2387695
vt 0.3774414 0.3012695
vt 0.2524414 0.3012695
vt 0.2524414 0.3022461
vt 0.3774414 0.3022461
vt 0.3774414 0.3647461
vt 0.2524414 0.3647461
vt 0.0004882813 0.2387695
vt 0.1254883 0.2387695
vt 0.1254883 0.3012695
vt 0.0004882813 0.3012695
vt 0.5043945 0.3022461
vt 0.6293945 0.3022461
vt 0.6293945 0.3647461
vt 0.5043945 0.3647461
vt 0.6303711 0.3022461
vt 0.7553711 0.3022461
vt 0.7553711 0.3647461
vt 0.6303711 0.3647461
vt 0.7563477 0.3022461
vt 0.8813477 0.3022461
vt 0.8813477 0.3647461
vt 0.7563477 0.3647461
vt 0.378418 0.3022461
vt 0.503418 0.3022461
vt 0.503418 0.3647461
vt 0.378418 0.3647461

# Normal
vn 0 0 -1

# Mesh description
g worldmap_mesh_0004

# Faces
f 1/1/1 2/2/1 3/3/1 4/4/1
f 5/5/1 6/6/1 7/7/1 8/8/1
f 9/5/1 10/6/1 11/7/1 12/8/1
f 13/9/1 14/10/1 15/11/1 16/12/1
f 17/5/1 18/6/1 19/7/1 20/8/1
f 21/13/1 22/14/1 23/15/1 24/16/1
f 25/17/1 26/18/1 27/19/1 28/20/1
f 29/13/1 30/14/1 31/15/1 32/16/1
f 33/13/1 34/14/1 35/15/1 36/16/1
f 37/21/1 38/22/1 39/23/1 40/24/1
f 41/1/1 42/2/1 43/3/1 44/4/1
f 45/13/1 46/14/1 47/15/1 48/16/1
f 49/25/1 50/26/1 51/27/1 52/28/1
f 53/5/1 54/6/1 55/7/1 56/8/1
f 57/13/1 58/14/1 59/15/1 60/16/1
f 61/29/1 62/30/1 63/31/1 64/32/1
f 65/25/1 66/26/1 67/27/1 68/28/1
f 69/17/1 70/18/1 71/19/1 72/20/1
f 73/5/1 74/6/1 75/7/1 76/8/1
f 77/17/1 78/18/1 79/19/1 80/20/1
f 81/9/1 82/10/1 83/11/1 84/12/1
f 85/13/1 86/14/1 87/15/1 88/16/1
f 89/9/1 90/10/1 91/11/1 92/12/1
f 93/9/1 94/10/1 95/11/1 96/12/1
f 97/25/1 98/26/1 99/27/1 100/28/1
f 101/13/1 102/14/1 103/15/1 104/16/1
f 105/29/1 106/30/1 107/31/1 108/32/1
f 109/29/1 110/30/1 111/31/1 112/32/1
f 113/5/1 114/6/1 115/7/1 116/8/1
f 117/9/1 118/10/1 119/11/1 120/12/1
f 121/29/1 122/30/1 123/31/1 124/32/1
f 125/1/1 126/2/1 127/3/1 128/4/1
f 129/9/1 130/10/1 131/11/1 132/12/1
f 133/1/1 134/2/1 135/3/1 136/4/1
f 137/5/1 138/6/1 139/7/1 140/8/1
f 141/29/1 142/30/1 143/31/1 144/32/1
f 145/13/1 146/14/1 147/15/1 148/16/1
f 149/5/1 150/6/1 151/7/1 152/8/1
f 153/9/1 154/10/1 155/11/1 156/12/1
f 157/1/1 158/2/1 159/3/1 160/4/1
f 161/21/1 162/22/1 163/23/1 164/24/1
f 165/9/1 166/10/1 167/11/1 168/12/1
f 169/25/1 170/26/1 171/27/1 172/28/1
f 173/21/1 174/22/1 175/23/1 176/24/1
f 177/9/1 178/10/1 179/11/1 180/12/1
f 181/5/1 182/6/1 183/7/1 184/8/1
f 185/29/1 186/30/1 187/31/1 188/32/1
f 189/29/1 190/30/1 191/31/1 192/32/1
f 193/1/1 194/2/1 195/3/1 196/4/1
f 197/1/1 198/2/1 199/3/1 200/4/1
f 201/13/1 202/14/1 203/15/1 204/16/1
f 205/5/1 206/6/1 207/7/1 208/8/1
f 209/5/1 210/6/1 211/7/1 212/8/1
f 213/1/1 214/2/1 215/3/1 216/4/1
f 217/13/1 218/14/1 219/15/1 220/16/1
f 221/1/1 222/2/1 223/3/1 224/4/1
f 225/9/1 226/10/1 227/11/1 228/12/1
f 229/9/1 230/10/1 231/11/1 232/12/1
f 233/29/1 234/30/1 235/31/1 236/32/1
f 237/9/1 238/10/1 239/11/1 240/12/1
f 241/29/1 242/30/1 243/31/1 244/32/1
f 245/29/1 246/30/1 247/31/1 248/32/1
f 249/21/1 250/22/1 251/23/1 252/24/1
f 253/9/1 254/10/1 255/11/1 256/12/1
f 257/17/1 258/18/1 259/19/1 260/20/1
f 261/9/1 262/10/1 263/11/1 264/12/1
f 265/17/1 266/18/1 267/19/1 268/20/1
f 269/1/1 270/2/1 271/3/1 272/4/1
f 273/13/1 274/14/1 275/15/1 276/16/1
f 277/21/1 278/22/1 279/23/1 280/24/1
f 281/5/1 282/6/1 283/7/1 284/8/1
f 285/5/1 286/6/1 287/7/1 288/8/1
f 289/21/1 290/22/1 291/23/1 292/24/1
f 293/25/1 294/26/1 295/27/1 296/28/1
f 297/21/1 298/22/1 299/23/1 300/24/1
f 301/5/1 302/6/1 303/7/1 304/8/1
f 305/9/1 306/10/1 307/11/1 308/12/1
f 309/29/1 310/30/1 311/31/1 312/32/1
f 313/9/1 314/10/1 315/11/1 316/12/1
f 317/25/1 318/26/1 319/27/1 320/28/1
f 321/13/1 322/14/1 323/15/1 324/16/1
f 325/13/1 326/14/1 327/15/1 328/16/1
f 329/9/1 330/10/1 331/11/1 332/12/1
f 333/1/1 334/2/1 335/3/1 336/4/1
f 337/13/1 338/14/1 339/15/1 340/16/1
f 341/9/1 342/10/1 343/11/1 344/12/1
f 345/29/1 346/30/1 347/31/1 348/32/1
f 349/1/1 350/2/1 351/3/1 352/4/1
f 353/21/1 354/22/1 355/23/1 356/24/1
f 357/5/1 358/6/1 359/7/1 360/8/1
f 361/17/1 362/18/1 363/19/1 364/20/1
f 365/25/1 366/26/1 367/27/1 368/28/1
f 369/21/1 370/22/1 371/23/1 372/24/1
f 373/9/1 374/10/1 375/11/1 376/12/1
f 377/17/1 378/18/1 379/19/1 380/20/1
f 381/5/1 382/6/1 383/7/1 384/8/1
f 385/29/1 386/30/1 387/31/1 388/32/1
f 389/9/1 390/10/1 391/11/1 392/12/1
f 393/9/1 394/10/1 395/11/1 396/12/1
f 397/21/1 398/22/1 399/23/1 400/24/1
f 401/1/1 402/2/1 403/3/1 404/4/1
f 405/29/1 406/30/1 407/31/1 408/32/1
f 409/13/1 410/14/1 411/15/1 412/16/1
f 413/5/1 414/6/1 415/7/1 416/8/1
f 417/9/1 418/10/1 419/11/1 420/12/1
f 421/1/1 422/2/1 423/3/1 424/4/1
f 425/25/1 426/26/1 427/27/1 428/28/1
f 429/25/1 430/26/1 431/27/1 432/28/1
f 433/29/1 434/30/1 435/31/1 436/32/1
f 437/5/1 438/6/1 439/7/1 440/8/1
f 441/13/1 442/14/1 443/15/1 444/16/1
f 445/21/1 446/22/1 447/23/1 448/24/1
f 449/9/1 450/10/1 451/11/1 452/12/1
f 453/25/1 454/26/1 455/27/1 456/28/1
f 457/9/1 458/10/1 459/11/1 460/12/1
f 461/29/1 462/30/1 463/31/1 464/32/1
f 465/29/1 466/30/1 467/31/1 468/32/1
f 469/9/1 470/10/1 471/11/1 472/12/1
f 473/17/1 474/18/1 475/19/1 476/20/1
f 477/5/1 478/6/1 479/7/1 480/8/1
f 481/21/1 482/22/1 483/23/1 484/24/1
f 485/25/1 486/26/1 487/27/1 488/28/1
f 489/9/1 490/10/1 491/11/1 492/12/1
f 493/13/1 494/14/1 495/15/1 496/16/1
f 497/1/1 498/2/1 499/3/1 500/4/1
f 501/5/1 502/6/1 503/7/1 504/8/1
f 505/5/1 506/6/1 507/7/1 508/8/1
f 509/9/1 510/10/1 511/11/1 512/12/1
f 513/1/1 514/2/1 515/3/1 516/4/1
f 517/1/1 518/2/1 519/3/1 520/4/1
f 521/25/1 522/26/1 523/27/1 524/28/1
f 525/13/1 526/14/1 527/15/1 528/16/1
f 529/29/1 530/30/1 531/31/1 532/32/1
f 533/29/1 534/30/1 535/31/1 536/32/1
f 537/9/1 538/10/1 539/11/1 540/12/1
f 541/29/1 542/30/1 543/31/1 544/32/1
f 545/21/1 546/22/1 547/23/1 548/24/1
f 549/21/1 550/22/1 551/23/1 552/24/1
f 553/29/1 554/30/1 555/31/1 556/32/1
f 557/1/1 558/2/1 559/3/1 560/4/1
f 561/1/1 562/2/1 563/3/1 564/4/1
f 565/25/1 566/26/1 567/27/1 568/28/1
f 569/5/1 570/6/1 571/7/1 572/8/1
f 573/17/1 574/18/1 575/19/1 576/20/1
f 577/21/1 578/22/1 579/23/1 580/24/1
f 581/1/1 582/2/1 583/3/1 584/4/1
f 585/9/1 586/10/1 587/11/1 588/12/1
f 589/5/1 590/6/1 591/7/1 592/8/1
f 593/9/1 594/10/1 595/11/1 596/12/1
f 597/29/1 598/30/1 599/31/1 600/32/1
f 601/5/1 602/6/1 603/7/1 604/8/1
f 605/5/1 606/6/1 607/7/1 608/8/1
f 609/29/1 610/30/1 611/31/1 612/32/1
f 613/17/1 614/18/1 615/19/1 616/20/1
f 617/5/1 618/6/1 619/7/1 620/8/1
f 621/9/1 622/10/1 623/11/1 624/12/1
f 625/29/1 626/30/1 627/31/1 628/32/1
f 629/21/1 630/22/1 631/23/1 632/24/1
f 633/17/1 634/18/1 635/19/1 636/20/1
f 637/25/1 638/26/1 639/27/1 640/28/1
f 641/1/1 642/2/1 643/3/1 644/4/1
f 645/17/1 646/18/1 647/19/1 648/20/1
f 649/9/1 650/10/1 651/11/1 652/12/1
f 653/5/1 654/6/1 655/7/1 656/8/1
f 657/5/1 658/6/1 659/7/1 660/8/1
f 661/1/1 662/2/1 663/3/1 664/4/1
f 665/13/1 666/14/1 667/15/1 668/16/1
f 669/17/1 670/18/1 671/19/1 672/20/1
f 673/9/1 674/10/1 675/11/1 676/12/1
f 677/9/1 678/10/1 679/11/1 680/12/1
f 681/17/1 682/18/1 683/19/1 684/20/1
f 685/1/1 686/2/1 687/3/1 688/4/1
f 689/1/1 690/2/1 691/3/1 692/4/1
f 693/25/1 694/26/1 695/27/1 696/28/1
f 697/5/1 698/6/1 699/7/1 700/8/1
f 701/1/1 702/2/1 703/3/1 704/4/1
f 705/13/1 706/14/1 707/15/1 708/16/1
f 709/25/1 710/26/1 711/27/1 712/28/1
f 713/9/1 714/10/1 715/11/1 716/12/1
f 717/21/1 718/22/1 719/23/1 720/24/1
f 721/1/1 722/2/1 723/3/1 724/4/1
f 725/29/1 726/30/1 727/31/1 728/32/1
f 729/9/1 730/10/1 731/11/1 732/12/1
f 733/13/1 734/14/1 735/15/1 736/16/1
f 737/13/1 738/14/1 739/15/1 740/16/1
f 741/5/1 742/6/1 743/7/1 744/8/1
f 745/21/1 746/22/1 747/23/1 748/24/1
f 749/13/1 750/14/1 751/15/1 752/16/1
f 753/1/1 754/2/1 755/3/1 756/4/1
f 757/9/1 758/10/1 759/11/1 760/12/1
f 761/13/1 762/14/1 763/15/1 764/16/1
f 765/13/1 766/14/1 767/15/1 768/16/1
f 769/9/1 770/10/1 771/11/1 772/12/1

